<svg xmlns="http://www.w3.org/2000/svg" xmlns:xlink="http://www.w3.org/1999/xlink" width="234" zoomAndPan="magnify" viewBox="0 0 175.5 104.249996" height="139" preserveAspectRatio="xMidYMid meet" version="1.2"><defs/><g id="62c5a5d6aa"><g style="fill:#000000;fill-opacity:1;"><g transform="translate(13.717826, 68.378915)"><path style="stroke:none" d="M 4.046875 0 L 4.046875 -41.578125 L 19.3125 -41.578125 C 22.632812 -41.578125 25.375 -41.015625 27.53125 -39.890625 C 29.6875 -38.765625 31.300781 -37.238281 32.375 -35.3125 C 33.445312 -33.394531 33.984375 -31.269531 33.984375 -28.9375 C 33.984375 -26.394531 33.316406 -24.070312 31.984375 -21.96875 C 30.660156 -19.875 28.59375 -18.351562 25.78125 -17.40625 L 34.390625 0 L 25.65625 0 L 17.9375 -16.390625 L 11.640625 -16.390625 L 11.640625 0 Z M 11.640625 -21.984375 L 18.828125 -21.984375 C 21.367188 -21.984375 23.234375 -22.59375 24.421875 -23.8125 C 25.609375 -25.039062 26.203125 -26.664062 26.203125 -28.6875 C 26.203125 -30.664062 25.613281 -32.25 24.4375 -33.4375 C 23.269531 -34.632812 21.378906 -35.234375 18.765625 -35.234375 L 11.640625 -35.234375 Z M 11.640625 -21.984375 "/></g></g><g style="fill:#000000;fill-opacity:1;"><g transform="translate(50.727551, 68.378915)"><path style="stroke:none" d="M 1.0625 0 L 11.765625 -14.734375 L 1.0625 -29.46875 L 9.203125 -29.46875 L 16.6875 -19.015625 L 24.125 -29.46875 L 32.3125 -29.46875 L 21.5625 -14.734375 L 32.3125 0 L 24.125 0 L 16.6875 -10.453125 L 9.203125 0 Z M 1.0625 0 "/></g></g><g style="fill:#737373;fill-opacity:1;"><g transform="translate(84.062681, 74.828873)"><path style="stroke:none" d="M 16.453125 -7.90625 L 5.53125 -21.328125 L 21.203125 -34.6875 L 30.71875 -34.6875 L 15.03125 -21.328125 L 26.015625 -7.90625 Z M 16.453125 -7.90625 "/></g></g><g style="fill:#737373;fill-opacity:1;"><g transform="translate(115.013025, 74.828873)"><path style="stroke:none" d=""/></g></g><g style="fill:#737373;fill-opacity:1;"><g transform="translate(130.339693, 74.828873)"><path style="stroke:none" d="M 2.546875 -7.90625 L 18.234375 -21.328125 L 7.25 -34.6875 L 16.8125 -34.6875 L 27.75 -21.328125 L 12.125 -7.90625 Z M 2.546875 -7.90625 "/></g></g><g style="fill:#000000;fill-opacity:1;"><g transform="translate(114.415966, 66.619835)"><path style="stroke:none" d="M -1.5625 4.34375 L 14.3125 -30.375 L 19.1875 -30.375 L 3.28125 4.34375 Z M -1.5625 4.34375 "/></g></g></g></svg>